#!OML:ASF E:\Steps\Project 1\Capture day 1\Session 2\Subject.ASF
:FULLY-SPECIFIED
:DEGREES
296
root -1.10264 17.867 20.1258 -157.279 -1.54793 180.887
lowerback -24.0461 -2.3705 -9.2705
upperback 0.200995 -0.722032 -0.812634
thorax 13.9105 -1.07899 4.09343
lowerneck 2.27789 -7.93602 -2.15965
upperneck 17.331 -13.4414 5.32539
head 5.3797 -7.01587 1.378
rclavicle 7.7526e-015 2.70347e-014
rhumerus -41.3358 -15.0675 -77.8692
rradius 35.4442
rwrist -4.63864
rhand -8.15025 -52.3155
rfingers 7.12502
rthumb 17.7643 -81.5241
lclavicle 7.7526e-015 2.70347e-014
lhumerus -32.601 5.9213 73.5384
lradius 18.8621
lwrist -7.81894
lhand -20.9854 -12.5581
lfingers 7.12502
lthumb 5.38845 17.3534
rfemur -45.6309 -1.49213 22.75
rtibia 46.1971
rfoot -26.2885 -11.1051
rtoes -43.3302
lfemur -22.8997 -13.0629 -19.1194
ltibia 17.5622
lfoot -14.8443 -0.126079
ltoes -27.754
297
root -1.09734 17.8659 20.0973 -157.396 -1.69424 181.099
lowerback -24.0183 -2.36386 -9.14937
upperback 0.212156 -0.752587 -0.739974
thorax 13.9118 -1.08505 4.09834
lowerneck 2.15624 -7.96098 -2.08668
upperneck 17.4504 -13.4527 5.12731
head 5.41989 -7.02214 1.29686
rclavicle 8.15017e-015 7.71285e-014
rhumerus -41.4396 -15.0013 -77.7461
rradius 35.4363
rwrist -4.56348
rhand -8.50714 -52.9426
rfingers 7.12502
rthumb 17.4208 -82.182
lclavicle 8.15017e-015 7.71285e-014
lhumerus -32.558 5.9185 73.4919
lradius 18.7252
lwrist -7.98274
lhand -21.1419 -12.2759
lfingers 7.12502
lthumb 5.23731 17.6394
rfemur -46.313 -1.40316 22.5723
rtibia 46.1186
rfoot -26.3371 -11.5604
rtoes -42.3994
lfemur -22.8022 -13.1891 -18.852
ltibia 17.8133
lfoot -15.1455 -0.104082
ltoes -27.2385
298
root -1.09077 17.8621 20.0641 -157.54 -1.8809 181.196
lowerback -24.0844 -2.41094 -9.17717
upperback 0.289272 -0.794394 -0.66648
thorax 14.0499 -1.11306 4.18321
lowerneck 2.12299 -8.00693 -2.05609
upperneck 17.4454 -13.4927 5.04078
head 5.41782 -7.04062 1.26265
rclavicle 9.93923e-016 -1.03368e-014
rhumerus -41.4377 -15.0715 -77.5538
rradius 35.3353
rwrist -4.7641
rhand -8.75759 -53.5669
rfingers 7.12502
rthumb 17.1798 -82.8275
lclavicle 9.93923e-016 -1.03368e-014
lhumerus -32.4315 6.2443 73.3542
lradius 18.56
lwrist -8.29913
lhand -21.2314 -12.1311
lfingers 7.12502
lthumb 5.15095 17.7863
rfemur -46.8363 -1.35961 22.2193
rtibia 45.6777
rfoot -25.9077 -11.8975
rtoes -42.5643
lfemur -22.6193 -13.3943 -18.7257
ltibia 18.0079
lfoot -15.3778 0.0494108
ltoes -27.2796
299
root -1.08306 17.8571 20.0272 -157.753 -2.09765 181.147
lowerback -24.004 -2.51615 -9.367
upperback 0.329033 -0.88842 -0.603211
thorax 14.0718 -1.17161 4.33165
lowerneck 2.15256 -8.11362 -2.11345
upperneck 17.5476 -13.6717 5.03223
head 5.45594 -7.13637 1.2573
rclavicle -1.98785e-015 4.77083e-015
rhumerus -41.6224 -15.2047 -77.2596
rradius 35.2658
rwrist -4.86288
rhand -8.43907 -53.339
rfingers 7.12502
rthumb 17.4863 -82.5726
lclavicle -1.98785e-015 4.77083e-015
lhumerus -32.4596 6.61281 73.2395
lradius 18.5551
lwrist -8.38884
lhand -21.2902 -11.9047
lfingers 7.12502
lthumb 5.09414 18.0141
rfemur -47.1764 -1.43131 21.6868
rtibia 45.0129
rfoot -25.2106 -12.2013
rtoes -43.2869
lfemur -22.3204 -13.7237 -18.7756
ltibia 18.2108
lfoot -15.5668 0.153779
ltoes -27.2529
300
root -1.07681 17.8522 19.9886 -157.996 -2.26704 181.147
lowerback -23.9151 -2.59023 -9.48215
upperback 0.386835 -0.957804 -0.564916
thorax 14.1052 -1.21303 4.41738
lowerneck 1.65853 -8.1859 -2.28225
upperneck 18.3603 -13.976 5.18267
head 5.82954 -7.28705 1.25613
rclavicle -8.94531e-015 1.35174e-014
rhumerus -41.8304 -15.2416 -77.0846
rradius 35.2593
rwrist -4.80048
rhand -8.13412 -53.0523
rfingers 7.12502
rthumb 17.7798 -82.2595
lclavicle -8.94531e-015 1.35174e-014
lhumerus -32.5212 6.43604 73.2966
lradius 18.753
lwrist -7.8436
lhand -21.4234 -11.7805
lfingers 7.12502
lthumb 4.96553 18.1413
rfemur -47.5443 -1.36593 21.1184
rtibia 44.4449
rfoot -24.7598 -12.3802
rtoes -43.6436
lfemur -21.9949 -14.0278 -18.8075
ltibia 18.4812
lfoot -15.8791 0.2477
ltoes -27.2543
301
root -1.06897 17.8465 19.9472 -158.272 -2.46917 181.232
lowerback -23.898 -2.65377 -9.53872
upperback 0.483927 -1.01751 -0.509795
thorax 14.2247 -1.25 4.49161
lowerneck 1.83135 -8.0812 -2.14847
upperneck 17.8626 -13.6846 5.07683
head 5.61417 -7.13582 1.24721
rclavicle 1.39149e-015 -4.77083e-014
rhumerus -41.8445 -15.1932 -76.9766
rradius 35.0633
rwrist -4.75068
rhand -8.03978 -53.122
rfingers 7.12502
rthumb 17.8706 -82.3209
lclavicle 1.39149e-015 -4.77083e-014
lhumerus -32.5879 6.04132 73.4271
lradius 19.0692
lwrist -7.15684
lhand -21.5143 -11.793
lfingers 7.12502
lthumb 4.87772 18.1309
rfemur -47.8503 -1.19083 20.5622
rtibia 43.8404
rfoot -24.6397 -12.1134
rtoes -42.3033
lfemur -21.6011 -14.3114 -18.7573
ltibia 18.6628
lfoot -16.2159 0.378557
ltoes -27.6664
